<svg width="46" height="46" viewBox="0 0 46 46" fill="none" xmlns="http://www.w3.org/2000/svg">
<path d="M27.5283 20.899C22.6148 21.0961 21.1408 17.0406 21.018 14.9883C22.1972 16.663 23.5566 16.5891 24.0889 16.3428C24.8259 16.3428 26.4473 15.7764 27.0369 13.5106C27.6266 11.2448 25.3172 9.44692 24.0889 8.83121C22.0825 8.01027 17.1855 7.67369 13.6478 12.8949C10.1101 18.1161 12.9927 24.8396 14.8762 27.5487C7.21119 20.1602 9.79893 11.3351 12.0509 7.84609C13.9754 5.30117 19.6668 1.0487 27.0369 4.39813C36.2496 8.58493 33.6701 20.6528 27.5283 20.899Z" fill="white"/>
<path d="M6.40046 16.3428C6.597 28.7554 17.8652 31.9407 23.4747 31.9817C13.0336 37.6462 5.54061 29.3958 3.69807 26.3173C2.22403 23.8544 1.69174 18.6415 1.60985 16.3428C6.32676 3.83168 16.514 0.29343 21.018 0.0881962C35.0704 -0.995446 42.2686 8.17446 44.1111 12.8949C44.7253 14.9883 44.8482 16.8354 42.3914 18.0668C40.4261 19.0519 38.3788 17.3279 37.6008 16.3428C37.4043 13.3874 35.0622 9.44692 33.9157 7.84609C31.7866 5.17803 25.4155 0.408361 16.9644 2.67416C8.51324 4.93995 6.40046 12.7307 6.40046 16.3428Z" fill="white"/>
<path d="M15.4903 36.9074C8.51324 36.5133 2.75632 28.1233 0.75 23.9776C1.85552 36.4148 7.38315 38.6314 11.5596 39.8628C14.9007 40.8479 20.6494 38.7956 23.1062 37.6462C25.0306 36.6201 29.6656 34.4938 32.8102 34.1983C35.9548 33.4102 40.3442 35.4297 42.1458 36.538C42.9319 36.2424 44.5206 32.7206 45.2167 30.9966C40.9174 28.2875 37.2323 28.7801 34.4071 28.9032C32.1469 29.0017 26.8322 32.4743 24.4574 34.1983C22.9833 35.1834 19.1263 37.1044 15.4903 36.9074Z" fill="white"/>
<path d="M18.9297 41.4636C16.6696 42.4487 12.747 42.3666 11.0682 42.2025C12.0919 42.9003 14.5076 44.3205 15.9817 44.419C17.8242 44.5421 23.8432 41.833 24.8259 41.4636C25.8086 41.0942 27.6511 40.6016 30.2307 40.4785C32.2943 40.38 34.9394 41.833 36.004 42.5719C36.7901 42.4734 39.5253 39.7396 40.7946 38.3851C37.8465 36.0454 33.9157 36.0454 32.8102 36.1685C31.7047 36.2917 21.755 40.2322 18.9297 41.4636Z" fill="white"/>
<path d="M27.0369 42.5719C25.5629 42.5719 21.018 44.5421 18.9297 45.5273C25.5138 46.8079 31.1724 44.9937 33.1787 43.9264C31.9504 42.695 28.8795 42.5719 27.0369 42.5719Z" fill="white"/>
</svg>
